<svg width="147" height="224" viewBox="0 0 147 224" fill="none" xmlns="http://www.w3.org/2000/svg">
<path fill-rule="evenodd" clip-rule="evenodd" d="M71 0C87.5 0 147 13.5762 147 13.5762V212.687C147 212.687 87.5 224 71 224C54.5 224 0.5 212.687 0.5 212.687V13.5762C0.5 13.5762 54.5 3.26901e-07 71 0ZM100.688 83.0244C98.8966 83.0244 97.2322 83.1522 95.6963 83.4082C94.1604 83.6002 92.5603 83.6963 90.8965 83.6963C89.1685 83.6963 87.5677 83.6319 86.0957 83.5039C84.6238 83.3759 82.9594 83.3115 81.1035 83.3115C80.4637 83.3116 79.8234 83.4077 79.1836 83.5996C78.6079 83.7916 78.3205 84.1119 78.3203 84.5596C78.3203 85.1356 78.6403 85.616 79.2803 86C79.9841 86.3199 80.656 86.5439 81.2959 86.6719C82.5118 86.7359 83.664 87.0876 84.752 87.7275C85.9039 88.3675 86.4804 89.2959 86.4805 90.5117C86.4805 91.0877 86.3516 91.7277 86.0957 92.4316C85.9037 93.1356 85.6481 93.8082 85.3281 94.4482C83.9842 97.3921 82.6081 100.176 81.2002 102.8C79.8562 105.36 78.4159 107.952 76.8799 110.576C76.5599 111.152 76.2399 111.6 75.9199 111.92C75.664 112.176 75.4082 112.304 75.1523 112.304C74.5764 112.304 73.9998 111.728 73.4238 110.576L63.5361 93.584C62.8321 92.304 62.4805 91.1836 62.4805 90.2236C62.4806 89.1998 62.8639 88.4636 63.6318 88.0156C64.3998 87.5036 65.6481 87.0242 67.376 86.5762C68.0799 86.4482 68.72 86.2242 69.2959 85.9043C69.8719 85.5203 70.1602 85.0716 70.1602 84.5596C70.16 84.1118 69.8717 83.7915 69.2959 83.5996C68.7201 83.3437 68.1442 83.2159 67.5684 83.2158C65.4564 83.2158 63.4395 83.3119 61.5195 83.5039C59.6638 83.6959 57.6801 83.792 55.5684 83.792C52.8165 83.792 50.1922 83.6959 47.6963 83.5039C45.2643 83.3119 42.7036 83.2158 40.0156 83.2158C39.5039 83.2159 39.024 83.3438 38.5762 83.5996C38.1923 83.7915 38.0001 84.1118 38 84.5596C38 85.1996 38.2239 85.6483 38.6719 85.9043C39.1198 86.1603 39.6639 86.4159 40.3037 86.6719C41.5196 86.9918 42.5757 87.5359 43.4717 88.3037C44.4317 89.0077 45.2638 89.8081 45.9678 90.7041C46.6717 91.6 47.28 92.4957 47.792 93.3916L60.1758 112.496C60.9438 113.776 61.6164 115.152 62.1924 116.624C62.8323 118.096 63.1523 119.952 63.1523 122.192V135.44C63.1523 137.488 62.6718 139.152 61.7119 140.432C60.7519 141.648 59.056 142.512 56.624 143.024C55.8561 143.152 55.1843 143.376 54.6084 143.696C54.0324 144.016 53.7441 144.464 53.7441 145.04C53.7442 145.488 54 145.84 54.5117 146.096C55.0237 146.416 55.6963 146.576 56.5283 146.576C58.0002 146.576 59.5685 146.48 61.2324 146.288C62.8963 146.16 64.5281 146.064 66.1279 146C67.7279 145.872 69.2 145.808 70.5439 145.808C71.8239 145.808 73.296 145.872 74.96 146C76.6878 146.064 78.4157 146.16 80.1436 146.288C81.8714 146.416 83.4397 146.48 84.8477 146.48C85.5517 146.48 86.1282 146.32 86.5762 146C87.088 145.744 87.3436 145.392 87.3438 144.944C87.3438 144.368 87.0561 143.952 86.4805 143.696C85.9685 143.44 85.3276 143.216 84.5596 143.024C82.0639 142.32 80.336 141.488 79.376 140.528C78.416 139.504 77.9356 137.808 77.9355 135.44V121.328C77.9355 119.984 78.0317 118.8 78.2236 117.776C78.4796 116.752 78.7996 115.76 79.1836 114.8C79.6316 113.84 80.112 112.912 80.624 112.016C81.584 110.352 82.544 108.752 83.5039 107.216C84.4638 105.68 85.3922 104.144 86.2881 102.608C87.2481 101.072 88.208 99.536 89.168 98C90.192 96.4 91.2162 94.7675 92.2402 93.1035C93.2002 91.5037 94.3524 90.1275 95.6963 88.9756C97.0402 87.8238 98.6721 87.0241 100.592 86.5762C101.296 86.3202 101.968 86.0636 102.608 85.8076C103.248 85.5516 103.568 85.1354 103.568 84.5596C103.568 83.9199 103.248 83.5035 102.608 83.3115C102.033 83.1196 101.392 83.0245 100.688 83.0244Z" fill="#D6B88D"/>
</svg>
